<svg width="148" height="54" viewBox="0 0 148 54" fill="none" xmlns="http://www.w3.org/2000/svg">
<path d="M46.4412 5.05335L52.5943 19.811L58.7702 5.05335H60.6493V21.7748H59.24V14.4936L59.3546 7.02869L53.1442 21.7748H52.0557L45.8683 7.08611L45.9829 14.4477V21.7748H44.5735V5.05335H46.4412Z" fill="#343A40"/>
<path d="M64.5043 15.3779C64.5043 14.1836 64.7335 13.1078 65.1918 12.1508C65.6578 11.1937 66.3109 10.4511 67.1512 9.92279C67.9991 9.38684 68.9577 9.11887 70.0272 9.11887C71.6771 9.11887 73.0139 9.70075 74.0375 10.8645C75.0611 12.0206 75.5729 13.5557 75.5729 15.4698V15.7569C75.5729 16.959 75.3399 18.0424 74.874 19.0071C74.4156 19.9641 73.7663 20.7029 72.9261 21.2236C72.0858 21.7442 71.1271 22.0045 70.0501 22.0045C68.4077 22.0045 67.0709 21.4265 66.0397 20.2704C65.0161 19.1066 64.5043 17.5677 64.5043 15.6536V15.3779ZM65.8793 15.7569C65.8793 17.2423 66.2612 18.4635 67.0251 19.4205C67.7966 20.3699 68.805 20.8446 70.0501 20.8446C71.2875 20.8446 72.2882 20.3699 73.0521 19.4205C73.8236 18.4635 74.2094 17.204 74.2094 15.6421V15.3779C74.2094 14.4286 74.0337 13.5596 73.6823 12.771C73.3309 11.9823 72.8382 11.3737 72.2042 10.9449C71.5702 10.5085 70.8445 10.2903 70.0272 10.2903C68.805 10.2903 67.8081 10.7726 67.0366 11.7373C66.2651 12.6944 65.8793 13.95 65.8793 15.5043V15.7569Z" fill="#343A40"/>
<path d="M78.5685 15.4468C78.5685 13.5174 78.9963 11.9823 79.8518 10.8416C80.715 9.6931 81.8837 9.11887 83.358 9.11887C85.0309 9.11887 86.3066 9.78115 87.1851 11.1057V4.13458H88.5486V21.7748H87.2653L87.208 20.1211C86.3295 21.3767 85.0386 22.0045 83.3351 22.0045C81.9067 22.0045 80.7532 21.4303 79.8748 20.2818C79.0039 19.1257 78.5685 17.5677 78.5685 15.6076V15.4468ZM79.955 15.688C79.955 17.2729 80.272 18.5247 80.906 19.4435C81.54 20.3546 82.4337 20.8101 83.5872 20.8101C85.2754 20.8101 86.4746 20.0636 87.1851 18.5706V12.7365C86.4746 11.121 85.283 10.3133 83.6101 10.3133C82.4567 10.3133 81.5591 10.7688 80.9174 11.6799C80.2758 12.5834 79.955 13.9194 79.955 15.688Z" fill="#343A40"/>
<path d="M100.688 21.7748C100.55 21.3844 100.462 20.8063 100.424 20.0407C99.943 20.6685 99.3281 21.1547 98.5795 21.4992C97.8385 21.8361 97.0517 22.0045 96.2191 22.0045C95.0275 22.0045 94.0612 21.6715 93.3202 21.0054C92.5869 20.3393 92.2202 19.4971 92.2202 18.4788C92.2202 17.2691 92.7206 16.312 93.7212 15.6076C94.7296 14.9032 96.1313 14.5511 97.9264 14.5511H100.413V13.1385C100.413 12.2503 100.138 11.5536 99.5878 11.0483C99.0455 10.5353 98.251 10.2788 97.2045 10.2788C96.2497 10.2788 95.4591 10.5238 94.8327 11.0138C94.2063 11.5038 93.8931 12.0934 93.8931 12.7824L92.5181 12.771C92.5181 11.7833 92.9765 10.9296 93.8931 10.2099C94.8098 9.48255 95.9365 9.11887 97.2733 9.11887C98.6559 9.11887 99.7444 9.46724 100.539 10.164C101.341 10.853 101.753 11.8177 101.776 13.0581V18.9381C101.776 20.1402 101.902 21.0398 102.154 21.637V21.7748H100.688ZM96.3795 20.7872C97.2962 20.7872 98.1135 20.5651 98.8316 20.1211C99.5573 19.677 100.084 19.0836 100.413 18.341V15.6076H97.9608C96.5934 15.6229 95.524 15.8756 94.7525 16.3656C93.981 16.848 93.5952 17.5141 93.5952 18.3639C93.5952 19.0607 93.8511 19.6387 94.3629 20.0981C94.8823 20.5575 95.5546 20.7872 96.3795 20.7872Z" fill="#343A40"/>
<path d="M108.395 20.4173C108.395 17.4466 109.054 15.0831 110.373 13.3266C111.704 11.5583 113.506 10.6742 115.779 10.6742C118.359 10.6742 120.325 11.6939 121.68 13.7333V3H123.782V30.1604H121.804L121.715 27.6141C120.361 29.5474 118.37 30.514 115.744 30.514C113.542 30.514 111.763 29.6299 110.409 27.8616C109.066 26.0816 108.395 23.6827 108.395 20.6649V20.4173ZM110.532 20.7886C110.532 23.2288 111.021 25.1562 111.999 26.5708C112.976 27.9736 114.354 28.675 116.133 28.675C118.735 28.675 120.585 27.5257 121.68 25.2269V16.2442C120.585 13.7569 118.747 12.5132 116.168 12.5132C114.39 12.5132 113.006 13.2146 112.016 14.6174C111.027 16.0085 110.532 18.0655 110.532 20.7886Z" fill="#343A40"/>
<path d="M139.604 30.1604C139.392 29.5592 139.257 28.6691 139.198 27.4903C138.456 28.457 137.508 29.2055 136.354 29.736C135.211 30.2547 133.998 30.514 132.714 30.514C130.877 30.514 129.387 30.0012 128.245 28.9756C127.114 27.9501 126.549 26.6533 126.549 25.0855C126.549 23.2229 127.32 21.7494 128.863 20.6649C130.418 19.5803 132.579 19.0381 135.347 19.0381H139.18V16.8631C139.18 15.4957 138.756 14.4229 137.908 13.6449C137.072 12.8551 135.847 12.4602 134.234 12.4602C132.761 12.4602 131.542 12.8374 130.577 13.5918C129.611 14.3463 129.128 15.254 129.128 16.315L127.008 16.2973C127.008 14.7766 127.715 13.4622 129.128 12.3541C130.541 11.2342 132.278 10.6742 134.34 10.6742C136.471 10.6742 138.15 11.2106 139.374 12.2833C140.611 13.3443 141.247 14.8296 141.282 16.7393V25.7928C141.282 27.6436 141.477 29.0287 141.865 29.9482V30.1604H139.604ZM132.962 28.6397C134.375 28.6397 135.635 28.2978 136.742 27.6141C137.861 26.9304 138.674 26.0168 139.18 24.8733V20.6649H135.4C133.291 20.6884 131.642 21.0774 130.453 21.8319C129.263 22.5746 128.669 23.6002 128.669 24.9087C128.669 25.9814 129.063 26.8714 129.852 27.5787C130.653 28.286 131.69 28.6397 132.962 28.6397Z" fill="#343A40"/>
<path d="M51.9753 27.3027L57.3934 44.1071L62.7949 27.3027H70.497V51.4559H64.6287V45.8158L65.1955 34.27L59.3273 51.4559H55.4596L49.5746 34.2534L50.1414 45.8158V51.4559H44.2899V27.3027H51.9753Z" fill="#343A40"/>
<path d="M83.0104 49.5151C81.8212 51.0302 80.2152 51.7877 78.1924 51.7877C76.2141 51.7877 74.7137 51.2182 73.6912 50.0791C72.6798 48.9289 72.1741 47.2811 72.1741 45.1356V33.5069H77.7923V45.1688C77.7923 46.706 78.5425 47.4746 80.0429 47.4746C81.3321 47.4746 82.2491 47.0157 82.7936 46.0978V33.5069H88.4452V51.4559H83.1771L83.0104 49.5151Z" fill="#343A40"/>
<path d="M95.7572 51.4559H90.1223V25.9756H95.7572V51.4559Z" fill="#343A40"/>
<path d="M103.019 35.4312C104.219 33.9271 105.753 33.1751 107.62 33.1751C109.61 33.1751 111.11 33.7612 112.122 34.9335C113.133 36.1058 113.65 37.8366 113.672 40.1258V51.4559H108.037V40.2585C108.037 39.3074 107.843 38.6107 107.454 38.1683C107.065 37.7149 106.403 37.4882 105.47 37.4882C104.314 37.4882 103.497 37.8531 103.019 38.5831V51.4559H97.4009V25.9756H103.019V35.4312Z" fill="#343A40"/>
<path d="M123.818 51.7877C121.051 51.7877 118.811 50.9693 117.1 49.3326C115.388 47.6848 114.532 45.5448 114.532 42.9127V42.4482C114.532 40.6124 114.871 38.9922 115.549 37.5877C116.238 36.1832 117.239 35.0994 118.55 34.3363C119.861 33.5622 121.417 33.1751 123.218 33.1751C125.752 33.1751 127.753 33.9603 129.22 35.5307C130.687 37.0901 131.42 39.2687 131.42 42.0667V44.2398H120.25C120.451 45.2462 120.89 46.0369 121.567 46.612C122.245 47.1871 123.123 47.4746 124.202 47.4746C125.98 47.4746 127.369 46.8553 128.369 45.6167L130.937 48.6358C130.237 49.598 129.242 50.3666 127.953 50.9417C126.674 51.5057 125.296 51.7877 123.818 51.7877ZM123.185 37.4882C121.54 37.4882 120.562 38.572 120.25 40.7396H125.919V40.3083C125.941 39.4125 125.713 38.7213 125.235 38.2347C124.757 37.737 124.074 37.4882 123.185 37.4882Z" fill="#343A40"/>
<path d="M142.9 38.5665L141.049 38.4338C139.282 38.4338 138.149 38.9867 137.649 40.0926V51.4559H132.03V33.5069H137.298L137.482 35.8127C138.427 34.0543 139.744 33.1751 141.433 33.1751C142.033 33.1751 142.555 33.2415 143 33.3742L142.9 38.5665Z" fill="#343A40"/>
<path d="M9.847 15.3097C11.3858 13.7489 12.9246 12.342 13.6061 12.6278C14.7052 13.0674 13.6061 14.892 12.9466 15.9692C12.397 16.8925 6.65949 24.5205 6.65949 29.8404C6.65949 32.6542 7.71466 34.9844 9.60519 36.3913C11.2539 37.6223 13.4302 37.996 15.4087 37.4025C17.7608 36.721 19.6953 34.3249 22.1354 31.3132C24.7953 28.0378 28.3566 23.7511 31.1044 23.7511C34.6876 23.7511 34.7316 25.9714 34.9734 27.686C26.6639 29.0929 23.1466 35.7538 23.1466 39.4908C23.1466 43.2279 26.3122 46.2835 30.2031 46.2835C33.7863 46.2835 39.6338 43.3598 40.5131 32.874H45.9209V27.3783H40.4911C40.1614 23.7511 38.095 18.1455 31.632 18.1455C26.6859 18.1455 22.4432 22.3442 20.7725 24.3886C19.4975 25.9934 16.244 29.8404 15.7384 30.368C15.1888 31.0274 14.2436 32.2145 13.2983 32.2145C12.3091 32.2145 11.7155 30.3899 12.5069 27.9938C13.2763 25.5977 15.5845 21.7067 16.5738 20.2558C18.2884 17.7498 19.4315 16.0351 19.4315 13.0455C19.4315 8.27518 15.8263 6.75836 13.9138 6.75836C11.0121 6.75836 8.48406 8.95665 7.93449 9.50622C7.14311 10.2976 6.48362 10.9571 6 11.5506L9.847 15.3097ZM30.2691 40.9417C29.5876 40.9417 28.6423 40.3702 28.6423 39.3589C28.6423 38.04 30.2471 34.5227 34.9514 33.2917C34.2919 39.2051 31.8079 40.9417 30.2691 40.9417Z" fill="#343A40"/>
</svg>
